<svg width="187" height="126" viewBox="0 0 187 126" fill="none" xmlns="http://www.w3.org/2000/svg">
<path d="M128.678 108.834C128.678 110.442 128.31 111.738 127.574 112.721C126.839 113.704 125.842 114.195 124.586 114.195C123.303 114.195 122.294 113.788 121.559 112.975V118.062H119.752V103.434H121.402L121.49 104.605C122.226 103.694 123.248 103.238 124.557 103.238C125.826 103.238 126.829 103.717 127.564 104.674C128.307 105.631 128.678 106.962 128.678 108.668V108.834ZM126.871 108.629C126.871 107.438 126.617 106.497 126.109 105.807C125.602 105.117 124.905 104.771 124.02 104.771C122.926 104.771 122.105 105.257 121.559 106.227V111.275C122.099 112.239 122.926 112.721 124.039 112.721C124.905 112.721 125.592 112.379 126.1 111.695C126.614 111.005 126.871 109.983 126.871 108.629Z" fill="black"/>
<path d="M7.86328 109.197C7.86328 108.709 7.67773 108.331 7.30664 108.064C6.94206 107.791 6.30078 107.557 5.38281 107.361C4.47135 107.166 3.74544 106.932 3.20508 106.658C2.67122 106.385 2.27409 106.059 2.01367 105.682C1.75977 105.304 1.63281 104.855 1.63281 104.334C1.63281 103.468 1.9974 102.736 2.72656 102.137C3.46224 101.538 4.39974 101.238 5.53906 101.238C6.73698 101.238 7.70703 101.548 8.44922 102.166C9.19792 102.785 9.57227 103.576 9.57227 104.539H7.75586C7.75586 104.044 7.54427 103.618 7.12109 103.26C6.70443 102.902 6.17708 102.723 5.53906 102.723C4.88151 102.723 4.36719 102.866 3.99609 103.152C3.625 103.439 3.43945 103.813 3.43945 104.275C3.43945 104.712 3.61198 105.04 3.95703 105.262C4.30208 105.483 4.92383 105.695 5.82227 105.896C6.72721 106.098 7.45964 106.339 8.01953 106.619C8.57943 106.899 8.99284 107.238 9.25977 107.635C9.5332 108.025 9.66992 108.504 9.66992 109.07C9.66992 110.014 9.29232 110.773 8.53711 111.346C7.7819 111.912 6.80208 112.195 5.59766 112.195C4.7513 112.195 4.0026 112.046 3.35156 111.746C2.70052 111.447 2.18945 111.03 1.81836 110.496C1.45378 109.956 1.27148 109.373 1.27148 108.748H3.07812C3.11068 109.354 3.35156 109.835 3.80078 110.193C4.25651 110.545 4.85547 110.721 5.59766 110.721C6.28125 110.721 6.82812 110.584 7.23828 110.311C7.65495 110.031 7.86328 109.66 7.86328 109.197Z" fill="black"/>
<rect x="32.5" y="0.5" width="154" height="49" fill="white" stroke="black"/>
<path d="M48.4163 63.5059C48.1434 62.7237 47.2881 62.3108 46.5059 62.5837L33.7592 67.0302C32.977 67.3031 32.5641 68.1584 32.837 68.9406C33.1099 69.7228 33.9652 70.1357 34.7474 69.8628L46.0778 65.9104L50.0302 77.2408C50.3031 78.023 51.1584 78.4359 51.9406 78.163C52.7228 77.8901 53.1357 77.0348 52.8628 76.2526L48.4163 63.5059ZM34.3508 93.6521L48.3508 64.6521L45.6492 63.3479L31.6492 92.3479L34.3508 93.6521Z" fill="black"/>
<path d="M166.416 61.5059C166.143 60.7237 165.288 60.3108 164.506 60.5837L151.759 65.0302C150.977 65.3031 150.564 66.1584 150.837 66.9406C151.11 67.7228 151.965 68.1357 152.747 67.8628L164.078 63.9104L168.03 75.2408C168.303 76.023 169.158 76.4359 169.941 76.163C170.723 75.8901 171.136 75.0348 170.863 74.2526L166.416 61.5059ZM152.351 91.6521L166.351 62.6521L163.649 61.3479L149.649 90.3479L152.351 91.6521Z" fill="black"/>
<path d="M42.3141 36V12.504H45.0201V18.906L44.8551 22.701H44.9541C45.7901 21.799 46.6811 21.051 47.6271 20.457C48.5951 19.863 49.7061 19.566 50.9601 19.566C52.8741 19.566 54.2711 20.116 55.1511 21.216C56.0531 22.294 56.5041 23.9 56.5041 26.034V36H53.7981V26.397C53.7981 24.879 53.5121 23.757 52.9401 23.031C52.3681 22.283 51.4221 21.909 50.1021 21.909C49.6181 21.909 49.1671 21.975 48.7491 22.107C48.3531 22.217 47.9571 22.393 47.5611 22.635C47.1651 22.877 46.7581 23.185 46.3401 23.559C45.9221 23.911 45.4821 24.329 45.0201 24.813V36H42.3141ZM69.9222 36.396C68.7122 36.396 67.5792 36.209 66.5232 35.835C65.4892 35.461 64.5762 34.911 63.7842 34.185C63.0142 33.459 62.3982 32.579 61.9362 31.545C61.4962 30.489 61.2762 29.29 61.2762 27.948C61.2762 26.65 61.4962 25.484 61.9362 24.45C62.3982 23.416 63.0032 22.536 63.7512 21.81C64.5212 21.084 65.3902 20.534 66.3582 20.16C67.3482 19.764 68.3822 19.566 69.4602 19.566C70.6042 19.566 71.6272 19.753 72.5292 20.127C73.4532 20.479 74.2232 20.985 74.8392 21.645C75.4772 22.305 75.9612 23.097 76.2912 24.021C76.6212 24.945 76.7862 25.968 76.7862 27.09C76.7862 27.398 76.7752 27.695 76.7532 27.981C76.7312 28.267 76.6982 28.52 76.6542 28.74H64.0152C64.1912 30.566 64.8512 31.941 65.9952 32.865C67.1612 33.767 68.5802 34.218 70.2522 34.218C71.2202 34.218 72.0892 34.086 72.8592 33.822C73.6512 33.536 74.4102 33.162 75.1362 32.7L76.1262 34.482C75.3342 35.01 74.4212 35.461 73.3872 35.835C72.3752 36.209 71.2202 36.396 69.9222 36.396ZM69.5262 21.711C68.8662 21.711 68.2282 21.821 67.6122 22.041C67.0182 22.261 66.4792 22.58 65.9952 22.998C65.5112 23.394 65.1042 23.9 64.7742 24.516C64.4442 25.132 64.2132 25.836 64.0812 26.628H74.3112C74.2012 24.978 73.7172 23.746 72.8592 22.932C72.0232 22.118 70.9122 21.711 69.5262 21.711ZM92.2503 36.396C90.5343 36.396 89.2253 35.912 88.3233 34.944C87.4213 33.976 86.9703 32.535 86.9703 30.621V14.715H81.2613V12.504H89.6763V30.819C89.6763 32.007 89.9623 32.865 90.5343 33.393C91.1063 33.899 91.8763 34.152 92.8443 34.152C93.7903 34.152 94.7913 33.91 95.8473 33.426L96.5403 35.439C95.7923 35.747 95.1103 35.978 94.4943 36.132C93.8783 36.308 93.1303 36.396 92.2503 36.396ZM112.037 36.396C110.321 36.396 109.012 35.912 108.11 34.944C107.208 33.976 106.757 32.535 106.757 30.621V14.715H101.048V12.504H109.463V30.819C109.463 32.007 109.749 32.865 110.321 33.393C110.893 33.899 111.663 34.152 112.631 34.152C113.577 34.152 114.578 33.91 115.634 33.426L116.327 35.439C115.579 35.747 114.897 35.978 114.281 36.132C113.665 36.308 112.917 36.396 112.037 36.396ZM128.294 36.396C127.238 36.396 126.226 36.209 125.258 35.835C124.312 35.461 123.476 34.922 122.75 34.218C122.024 33.492 121.441 32.612 121.001 31.578C120.583 30.522 120.374 29.334 120.374 28.014C120.374 26.672 120.583 25.484 121.001 24.45C121.441 23.394 122.024 22.503 122.75 21.777C123.476 21.051 124.312 20.501 125.258 20.127C126.226 19.753 127.238 19.566 128.294 19.566C129.35 19.566 130.351 19.753 131.297 20.127C132.265 20.501 133.112 21.051 133.838 21.777C134.564 22.503 135.136 23.394 135.554 24.45C135.994 25.484 136.214 26.672 136.214 28.014C136.214 29.334 135.994 30.522 135.554 31.578C135.136 32.612 134.564 33.492 133.838 34.218C133.112 34.922 132.265 35.461 131.297 35.835C130.351 36.209 129.35 36.396 128.294 36.396ZM128.294 34.152C129.064 34.152 129.757 34.009 130.373 33.723C131.011 33.415 131.55 32.997 131.99 32.469C132.452 31.919 132.804 31.27 133.046 30.522C133.288 29.774 133.409 28.938 133.409 28.014C133.409 27.09 133.288 26.254 133.046 25.506C132.804 24.736 132.452 24.076 131.99 23.526C131.55 22.976 131.011 22.558 130.373 22.272C129.757 21.964 129.064 21.81 128.294 21.81C127.524 21.81 126.82 21.964 126.182 22.272C125.566 22.558 125.027 22.976 124.565 23.526C124.125 24.076 123.784 24.736 123.542 25.506C123.3 26.254 123.179 27.09 123.179 28.014C123.179 28.938 123.3 29.774 123.542 30.522C123.784 31.27 124.125 31.919 124.565 32.469C125.027 32.997 125.566 33.415 126.182 33.723C126.82 34.009 127.524 34.152 128.294 34.152ZM152.272 41.28L141.448 12.57H143.89L154.714 41.28H152.272ZM167.868 36.396C165.514 36.396 163.666 35.45 162.324 33.558C160.982 31.644 160.311 28.927 160.311 25.407C160.311 21.865 160.982 19.17 162.324 17.322C163.666 15.474 165.514 14.55 167.868 14.55C170.222 14.55 172.07 15.474 173.412 17.322C174.754 19.17 175.425 21.865 175.425 25.407C175.425 28.927 174.754 31.644 173.412 33.558C172.07 35.45 170.222 36.396 167.868 36.396ZM167.868 34.218C169.342 34.218 170.541 33.503 171.465 32.073C172.411 30.643 172.884 28.421 172.884 25.407C172.884 23.889 172.763 22.591 172.521 21.513C172.279 20.413 171.927 19.511 171.465 18.807C171.025 18.081 170.497 17.553 169.881 17.223C169.265 16.893 168.594 16.728 167.868 16.728C167.142 16.728 166.471 16.893 165.855 17.223C165.239 17.553 164.7 18.081 164.238 18.807C163.798 19.511 163.457 20.413 163.215 21.513C162.973 22.591 162.852 23.889 162.852 25.407C162.852 28.421 163.314 30.643 164.238 32.073C165.184 33.503 166.394 34.218 167.868 34.218ZM167.868 27.387C167.318 27.387 166.834 27.2 166.416 26.826C166.02 26.43 165.822 25.88 165.822 25.176C165.822 24.494 166.02 23.966 166.416 23.592C166.834 23.196 167.318 22.998 167.868 22.998C168.418 22.998 168.891 23.196 169.287 23.592C169.705 23.966 169.914 24.494 169.914 25.176C169.914 25.88 169.705 26.43 169.287 26.826C168.891 27.2 168.418 27.387 167.868 27.387Z" fill="black"/>
<rect x="20.5" y="97.5" width="22" height="22" fill="white" stroke="black"/>
<path d="M30.1992 108.48L26.6602 107.426L27.1992 105.656L30.7383 106.969L30.6328 102.938H32.4258L32.3086 107.027L35.7891 105.738L36.3281 107.52L32.7305 108.586L35.0508 111.762L33.5977 112.863L31.418 109.488L29.3086 112.781L27.8438 111.715L30.1992 108.48Z" fill="black"/>
<rect x="137.5" y="97.5" width="22" height="22" fill="white" stroke="black"/>
<path d="M147.199 108.48L143.66 107.426L144.199 105.656L147.738 106.969L147.633 102.938H149.426L149.309 107.027L152.789 105.738L153.328 107.52L149.73 108.586L152.051 111.762L150.598 112.863L148.418 109.488L146.309 112.781L144.844 111.715L147.199 108.48Z" fill="black"/>
</svg>
