<svg width="179" height="115" viewBox="0 0 179 115" fill="none" xmlns="http://www.w3.org/2000/svg">
<path d="M12.9512 110C12.847 109.792 12.7624 109.421 12.6973 108.887C11.8574 109.759 10.8548 110.195 9.68945 110.195C8.64779 110.195 7.79167 109.902 7.12109 109.316C6.45703 108.724 6.125 107.975 6.125 107.07C6.125 105.97 6.54167 105.117 7.375 104.512C8.21484 103.9 9.39323 103.594 10.9102 103.594H12.668V102.764C12.668 102.132 12.4792 101.631 12.1016 101.26C11.724 100.882 11.1673 100.693 10.4316 100.693C9.78711 100.693 9.24674 100.856 8.81055 101.182C8.37435 101.507 8.15625 101.901 8.15625 102.363H6.33984C6.33984 101.836 6.52539 101.328 6.89648 100.84C7.27409 100.345 7.7819 99.9544 8.41992 99.668C9.06445 99.3815 9.77083 99.2383 10.5391 99.2383C11.7565 99.2383 12.7103 99.5443 13.4004 100.156C14.0905 100.762 14.4486 101.598 14.4746 102.666V107.529C14.4746 108.499 14.5983 109.271 14.8457 109.844V110H12.9512ZM9.95312 108.623C10.5195 108.623 11.0566 108.477 11.5645 108.184C12.0723 107.891 12.4401 107.51 12.668 107.041V104.873H11.252C9.03841 104.873 7.93164 105.521 7.93164 106.816C7.93164 107.383 8.12044 107.826 8.49805 108.145C8.87565 108.464 9.36068 108.623 9.95312 108.623Z" fill="black"/>
<path d="M134.201 110C134.097 109.792 134.012 109.421 133.947 108.887C133.107 109.759 132.105 110.195 130.939 110.195C129.898 110.195 129.042 109.902 128.371 109.316C127.707 108.724 127.375 107.975 127.375 107.07C127.375 105.97 127.792 105.117 128.625 104.512C129.465 103.9 130.643 103.594 132.16 103.594H133.918V102.764C133.918 102.132 133.729 101.631 133.352 101.26C132.974 100.882 132.417 100.693 131.682 100.693C131.037 100.693 130.497 100.856 130.061 101.182C129.624 101.507 129.406 101.901 129.406 102.363H127.59C127.59 101.836 127.775 101.328 128.146 100.84C128.524 100.345 129.032 99.9544 129.67 99.668C130.314 99.3815 131.021 99.2383 131.789 99.2383C133.007 99.2383 133.96 99.5443 134.65 100.156C135.34 100.762 135.699 101.598 135.725 102.666V107.529C135.725 108.499 135.848 109.271 136.096 109.844V110H134.201ZM131.203 108.623C131.77 108.623 132.307 108.477 132.814 108.184C133.322 107.891 133.69 107.51 133.918 107.041V104.873H132.502C130.288 104.873 129.182 105.521 129.182 106.816C129.182 107.383 129.37 107.826 129.748 108.145C130.126 108.464 130.611 108.623 131.203 108.623ZM148.693 102.373H152.658V104.082H148.693V108.574H146.877V104.082H142.912V102.373H146.877V98.2227H148.693V102.373ZM162.268 102.012H163.625C164.478 101.999 165.148 101.774 165.637 101.338C166.125 100.902 166.369 100.312 166.369 99.5703C166.369 97.9036 165.539 97.0703 163.879 97.0703C163.098 97.0703 162.473 97.2949 162.004 97.7441C161.542 98.1868 161.311 98.776 161.311 99.5117H159.504C159.504 98.3854 159.914 97.4512 160.734 96.709C161.561 95.9603 162.609 95.5859 163.879 95.5859C165.22 95.5859 166.271 95.9408 167.033 96.6504C167.795 97.36 168.176 98.3464 168.176 99.6094C168.176 100.228 167.974 100.827 167.57 101.406C167.173 101.986 166.63 102.419 165.939 102.705C166.721 102.952 167.323 103.363 167.746 103.936C168.176 104.508 168.391 105.208 168.391 106.035C168.391 107.311 167.974 108.324 167.141 109.072C166.307 109.821 165.223 110.195 163.889 110.195C162.554 110.195 161.467 109.834 160.627 109.111C159.794 108.389 159.377 107.435 159.377 106.25H161.193C161.193 106.999 161.438 107.598 161.926 108.047C162.414 108.496 163.068 108.721 163.889 108.721C164.761 108.721 165.428 108.493 165.891 108.037C166.353 107.581 166.584 106.927 166.584 106.074C166.584 105.247 166.33 104.613 165.822 104.17C165.314 103.727 164.582 103.499 163.625 103.486H162.268V102.012Z" fill="black"/>
<rect x="0.5" y="0.5" width="147" height="49" fill="white" stroke="black"/>
<rect x="0.5" y="0.5" width="49" height="49" fill="white" stroke="black"/>
<path d="M27.7559 36H25.0312V17.9385L19.5674 19.9453V17.4844L27.3311 14.5693H27.7559V36Z" fill="black"/>
<rect x="49.5" y="0.5" width="49" height="49" fill="white" stroke="black"/>
<path d="M71.79 24.0176H73.8262C75.1055 23.998 76.1113 23.6611 76.8438 23.0068C77.5762 22.3525 77.9424 21.4688 77.9424 20.3555C77.9424 17.8555 76.6973 16.6055 74.207 16.6055C73.0352 16.6055 72.0977 16.9424 71.3945 17.6162C70.7012 18.2803 70.3545 19.1641 70.3545 20.2676H67.6445C67.6445 18.5781 68.2598 17.1768 69.4902 16.0635C70.7305 14.9404 72.3027 14.3789 74.207 14.3789C76.2188 14.3789 77.7959 14.9111 78.9385 15.9756C80.0811 17.04 80.6523 18.5195 80.6523 20.4141C80.6523 21.3418 80.3496 22.2402 79.7441 23.1094C79.1484 23.9785 78.333 24.6279 77.2979 25.0576C78.4697 25.4287 79.373 26.0439 80.0078 26.9033C80.6523 27.7627 80.9746 28.8125 80.9746 30.0527C80.9746 31.9668 80.3496 33.4854 79.0996 34.6084C77.8496 35.7314 76.2236 36.293 74.2217 36.293C72.2197 36.293 70.5889 35.751 69.3291 34.667C68.0791 33.583 67.4541 32.1523 67.4541 30.375H70.1787C70.1787 31.498 70.5449 32.3965 71.2773 33.0703C72.0098 33.7441 72.9912 34.0811 74.2217 34.0811C75.5303 34.0811 76.5312 33.7393 77.2246 33.0557C77.918 32.3721 78.2646 31.3906 78.2646 30.1113C78.2646 28.8711 77.8838 27.9189 77.1221 27.2549C76.3604 26.5908 75.2617 26.249 73.8262 26.2295H71.79V24.0176Z" fill="black"/>
<rect x="98.5" y="0.5" width="49" height="49" fill="white" stroke="black"/>
<path d="M118.095 25.3066L119.179 14.6719H130.106V17.1768H121.479L120.834 22.9922C121.879 22.377 123.065 22.0693 124.394 22.0693C126.337 22.0693 127.88 22.7139 129.022 24.0029C130.165 25.2822 130.736 27.0156 130.736 29.2031C130.736 31.4004 130.141 33.1338 128.949 34.4033C127.768 35.6631 126.112 36.293 123.983 36.293C122.099 36.293 120.561 35.7705 119.369 34.7256C118.178 33.6807 117.499 32.2354 117.333 30.3896H119.896C120.062 31.6104 120.497 32.5332 121.2 33.1582C121.903 33.7734 122.831 34.0811 123.983 34.0811C125.243 34.0811 126.229 33.6514 126.942 32.792C127.665 31.9326 128.026 30.7461 128.026 29.2324C128.026 27.8066 127.636 26.6641 126.854 25.8047C126.083 24.9355 125.053 24.501 123.764 24.501C122.582 24.501 121.654 24.7598 120.98 25.2773L120.263 25.8633L118.095 25.3066Z" fill="black"/>
<path d="M26.4163 57.5059C26.1434 56.7237 25.2881 56.3108 24.5059 56.5837L11.7592 61.0302C10.977 61.3031 10.5641 62.1584 10.837 62.9406C11.1099 63.7228 11.9652 64.1357 12.7474 63.8628L24.0778 59.9104L28.0302 71.2408C28.3031 72.023 29.1584 72.4359 29.9406 72.163C30.7228 71.8901 31.1357 71.0348 30.8628 70.2526L26.4163 57.5059ZM12.3508 87.6521L26.3508 58.6521L23.6492 57.3479L9.64917 86.3479L12.3508 87.6521Z" fill="black"/>
<path d="M169.416 62.5059C169.143 61.7237 168.288 61.3108 167.506 61.5837L154.759 66.0302C153.977 66.3031 153.564 67.1584 153.837 67.9406C154.11 68.7228 154.965 69.1357 155.747 68.8628L167.078 64.9104L171.03 76.2408C171.303 77.023 172.158 77.4359 172.941 77.163C173.723 76.8901 174.136 76.0348 173.863 75.2526L169.416 62.5059ZM155.351 92.6521L169.351 63.6521L166.649 62.3479L152.649 91.3479L155.351 92.6521Z" fill="black"/>
</svg>
