<svg width="424" height="322" viewBox="0 0 424 322" fill="none" xmlns="http://www.w3.org/2000/svg">
<path d="M58.6777 187.834C58.6777 189.442 58.3099 190.738 57.5742 191.721C56.8385 192.704 55.8424 193.195 54.5859 193.195C53.3034 193.195 52.2943 192.788 51.5586 191.975V197.062H49.752V182.434H51.4023L51.4902 183.605C52.2259 182.694 53.248 182.238 54.5566 182.238C55.8262 182.238 56.8288 182.717 57.5645 183.674C58.3066 184.631 58.6777 185.962 58.6777 187.668V187.834ZM56.8711 187.629C56.8711 186.438 56.6172 185.497 56.1094 184.807C55.6016 184.117 54.9049 183.771 54.0195 183.771C52.9258 183.771 52.1055 184.257 51.5586 185.227V190.275C52.099 191.239 52.9258 191.721 54.0391 191.721C54.9049 191.721 55.5918 191.379 56.0996 190.695C56.6139 190.005 56.8711 188.983 56.8711 187.629Z" fill="black"/>
<path d="M201.244 187.629C201.244 185.969 201.625 184.657 202.387 183.693C203.148 182.723 204.171 182.238 205.453 182.238C206.703 182.238 207.689 182.658 208.412 183.498L208.49 182.434H210.15V197.062H208.344V192.023C207.615 192.805 206.645 193.195 205.434 193.195C204.158 193.195 203.139 192.701 202.377 191.711C201.622 190.715 201.244 189.396 201.244 187.756V187.629ZM203.051 187.834C203.051 189.045 203.305 189.995 203.812 190.686C204.327 191.376 205.017 191.721 205.883 191.721C206.957 191.721 207.777 191.245 208.344 190.295V185.119C207.771 184.188 206.957 183.723 205.902 183.723C205.03 183.723 204.337 184.071 203.822 184.768C203.308 185.458 203.051 186.48 203.051 187.834Z" fill="black"/>
<rect x="0.5" y="75.5" width="423" height="49" fill="white" stroke="black"/>
<rect x="0.5" y="75.5" width="49" height="49" fill="white" stroke="black"/>
<rect x="98.5" y="75.5" width="49" height="49" fill="white" stroke="black"/>
<rect x="148.5" y="75.5" width="49" height="49" fill="white" stroke="black"/>
<rect x="196.5" y="75.5" width="49" height="49" fill="white" stroke="black"/>
<rect x="246.5" y="75.5" width="49" height="49" fill="white" stroke="black"/>
<rect x="296.5" y="75.5" width="49" height="49" fill="white" stroke="black"/>
<rect x="346.5" y="75.5" width="49" height="49" fill="white" stroke="black"/>
<path d="M83.6914 247.629C83.6914 245.969 84.0723 244.657 84.834 243.693C85.5957 242.723 86.6178 242.238 87.9004 242.238C89.1504 242.238 90.1367 242.658 90.8594 243.498L90.9375 242.434H92.5977V257.062H90.791V252.023C90.0618 252.805 89.0918 253.195 87.8809 253.195C86.6048 253.195 85.5859 252.701 84.8242 251.711C84.069 250.715 83.6914 249.396 83.6914 247.756V247.629ZM85.498 247.834C85.498 249.045 85.752 249.995 86.2598 250.686C86.7741 251.376 87.4642 251.721 88.3301 251.721C89.4043 251.721 90.2246 251.245 90.791 250.295V245.119C90.2181 244.188 89.4043 243.723 88.3496 243.723C87.4772 243.723 86.7839 244.071 86.2695 244.768C85.7552 245.458 85.498 246.48 85.498 247.834ZM113.545 246.643H100.498V245.168H113.545V246.643ZM129.971 247.834C129.971 249.442 129.603 250.738 128.867 251.721C128.132 252.704 127.135 253.195 125.879 253.195C124.596 253.195 123.587 252.788 122.852 251.975V257.062H121.045V242.434H122.695L122.783 243.605C123.519 242.694 124.541 242.238 125.85 242.238C127.119 242.238 128.122 242.717 128.857 243.674C129.6 244.631 129.971 245.962 129.971 247.668V247.834ZM128.164 247.629C128.164 246.438 127.91 245.497 127.402 244.807C126.895 244.117 126.198 243.771 125.312 243.771C124.219 243.771 123.398 244.257 122.852 245.227V250.275C123.392 251.239 124.219 251.721 125.332 251.721C126.198 251.721 126.885 251.379 127.393 250.695C127.907 250.005 128.164 248.983 128.164 247.629ZM139.199 253H137.393V242.434H139.199V253ZM137.246 239.631C137.246 239.338 137.334 239.09 137.51 238.889C137.692 238.687 137.959 238.586 138.311 238.586C138.662 238.586 138.929 238.687 139.111 238.889C139.294 239.09 139.385 239.338 139.385 239.631C139.385 239.924 139.294 240.168 139.111 240.363C138.929 240.559 138.662 240.656 138.311 240.656C137.959 240.656 137.692 240.559 137.51 240.363C137.334 240.168 137.246 239.924 137.246 239.631ZM148.252 250.197C148.252 249.709 148.066 249.331 147.695 249.064C147.331 248.791 146.689 248.557 145.771 248.361C144.86 248.166 144.134 247.932 143.594 247.658C143.06 247.385 142.663 247.059 142.402 246.682C142.148 246.304 142.021 245.855 142.021 245.334C142.021 244.468 142.386 243.736 143.115 243.137C143.851 242.538 144.788 242.238 145.928 242.238C147.126 242.238 148.096 242.548 148.838 243.166C149.587 243.785 149.961 244.576 149.961 245.539H148.145C148.145 245.044 147.933 244.618 147.51 244.26C147.093 243.902 146.566 243.723 145.928 243.723C145.27 243.723 144.756 243.866 144.385 244.152C144.014 244.439 143.828 244.813 143.828 245.275C143.828 245.712 144.001 246.04 144.346 246.262C144.691 246.483 145.312 246.695 146.211 246.896C147.116 247.098 147.848 247.339 148.408 247.619C148.968 247.899 149.382 248.238 149.648 248.635C149.922 249.025 150.059 249.504 150.059 250.07C150.059 251.014 149.681 251.773 148.926 252.346C148.171 252.912 147.191 253.195 145.986 253.195C145.14 253.195 144.391 253.046 143.74 252.746C143.089 252.447 142.578 252.03 142.207 251.496C141.842 250.956 141.66 250.373 141.66 249.748H143.467C143.499 250.354 143.74 250.835 144.189 251.193C144.645 251.545 145.244 251.721 145.986 251.721C146.67 251.721 147.217 251.584 147.627 251.311C148.044 251.031 148.252 250.66 148.252 250.197ZM159.814 245.012H161.172C162.025 244.999 162.695 244.774 163.184 244.338C163.672 243.902 163.916 243.312 163.916 242.57C163.916 240.904 163.086 240.07 161.426 240.07C160.645 240.07 160.02 240.295 159.551 240.744C159.089 241.187 158.857 241.776 158.857 242.512H157.051C157.051 241.385 157.461 240.451 158.281 239.709C159.108 238.96 160.156 238.586 161.426 238.586C162.767 238.586 163.818 238.941 164.58 239.65C165.342 240.36 165.723 241.346 165.723 242.609C165.723 243.228 165.521 243.827 165.117 244.406C164.72 244.986 164.176 245.419 163.486 245.705C164.268 245.952 164.87 246.363 165.293 246.936C165.723 247.508 165.938 248.208 165.938 249.035C165.938 250.311 165.521 251.324 164.688 252.072C163.854 252.821 162.77 253.195 161.436 253.195C160.101 253.195 159.014 252.834 158.174 252.111C157.34 251.389 156.924 250.435 156.924 249.25H158.74C158.74 249.999 158.984 250.598 159.473 251.047C159.961 251.496 160.615 251.721 161.436 251.721C162.308 251.721 162.975 251.493 163.438 251.037C163.9 250.581 164.131 249.927 164.131 249.074C164.131 248.247 163.877 247.613 163.369 247.17C162.861 246.727 162.129 246.499 161.172 246.486H159.814V245.012Z" fill="black"/>
<path d="M151.496 289.996H148.918L148.137 294H146.74L147.521 289.996H145.188V288.658H147.775L148.449 285.201H145.93V283.844H148.713L149.514 279.781H150.91L150.109 283.844H152.688L153.488 279.781H154.895L154.094 283.844H156.086V285.201H153.83L153.156 288.658H155.354V289.996H152.902L152.121 294H150.715L151.496 289.996ZM149.172 288.658H151.75L152.424 285.201H149.846L149.172 288.658ZM162.199 288.619C162.199 287.584 162.401 286.653 162.805 285.826C163.215 284.999 163.781 284.361 164.504 283.912C165.233 283.463 166.063 283.238 166.994 283.238C168.433 283.238 169.595 283.736 170.48 284.732C171.372 285.729 171.818 287.053 171.818 288.707V288.834C171.818 289.863 171.62 290.787 171.223 291.607C170.832 292.421 170.269 293.056 169.533 293.512C168.804 293.967 167.964 294.195 167.014 294.195C165.581 294.195 164.419 293.697 163.527 292.701C162.642 291.705 162.199 290.387 162.199 288.746V288.619ZM164.016 288.834C164.016 290.006 164.286 290.947 164.826 291.656C165.373 292.366 166.102 292.721 167.014 292.721C167.932 292.721 168.661 292.363 169.201 291.646C169.742 290.924 170.012 289.915 170.012 288.619C170.012 287.46 169.735 286.523 169.182 285.807C168.635 285.084 167.906 284.723 166.994 284.723C166.102 284.723 165.383 285.077 164.836 285.787C164.289 286.497 164.016 287.512 164.016 288.834ZM174.973 294V284.83H173.303V283.434H174.973V282.35C174.973 281.217 175.275 280.341 175.881 279.723C176.486 279.104 177.342 278.795 178.449 278.795C178.866 278.795 179.279 278.85 179.689 278.961L179.592 280.426C179.286 280.367 178.96 280.338 178.615 280.338C178.029 280.338 177.577 280.51 177.258 280.855C176.939 281.194 176.779 281.682 176.779 282.32V283.434H179.035V284.83H176.779V294H174.973ZM190.383 294.195C188.951 294.195 187.785 293.727 186.887 292.789C185.988 291.845 185.539 290.585 185.539 289.01V288.678C185.539 287.63 185.738 286.695 186.135 285.875C186.538 285.048 187.098 284.404 187.814 283.941C188.537 283.473 189.318 283.238 190.158 283.238C191.532 283.238 192.6 283.691 193.361 284.596C194.123 285.501 194.504 286.796 194.504 288.482V289.234H187.346C187.372 290.276 187.674 291.119 188.254 291.764C188.84 292.402 189.582 292.721 190.48 292.721C191.118 292.721 191.659 292.59 192.102 292.33C192.544 292.07 192.932 291.725 193.264 291.295L194.367 292.154C193.482 293.515 192.154 294.195 190.383 294.195ZM190.158 284.723C189.429 284.723 188.817 284.99 188.322 285.523C187.827 286.051 187.521 286.793 187.404 287.75H192.697V287.613C192.645 286.695 192.398 285.986 191.955 285.484C191.512 284.977 190.913 284.723 190.158 284.723ZM198.566 294H196.76V279H198.566V294ZM205.852 294.195C204.419 294.195 203.254 293.727 202.355 292.789C201.457 291.845 201.008 290.585 201.008 289.01V288.678C201.008 287.63 201.206 286.695 201.604 285.875C202.007 285.048 202.567 284.404 203.283 283.941C204.006 283.473 204.787 283.238 205.627 283.238C207.001 283.238 208.068 283.691 208.83 284.596C209.592 285.501 209.973 286.796 209.973 288.482V289.234H202.814C202.84 290.276 203.143 291.119 203.723 291.764C204.309 292.402 205.051 292.721 205.949 292.721C206.587 292.721 207.128 292.59 207.57 292.33C208.013 292.07 208.4 291.725 208.732 291.295L209.836 292.154C208.951 293.515 207.622 294.195 205.852 294.195ZM205.627 284.723C204.898 284.723 204.286 284.99 203.791 285.523C203.296 286.051 202.99 286.793 202.873 287.75H208.166V287.613C208.114 286.695 207.867 285.986 207.424 285.484C206.981 284.977 206.382 284.723 205.627 284.723ZM213.771 283.434L213.82 284.605C214.595 283.694 215.64 283.238 216.955 283.238C218.433 283.238 219.439 283.805 219.973 284.938C220.324 284.43 220.78 284.02 221.34 283.707C221.906 283.395 222.574 283.238 223.342 283.238C225.66 283.238 226.838 284.465 226.877 286.92V294H225.07V287.027C225.07 286.272 224.898 285.709 224.553 285.338C224.208 284.96 223.628 284.771 222.814 284.771C222.144 284.771 221.587 284.973 221.145 285.377C220.702 285.774 220.445 286.311 220.373 286.988V294H218.557V287.076C218.557 285.54 217.805 284.771 216.301 284.771C215.116 284.771 214.305 285.276 213.869 286.285V294H212.062V283.434H213.771ZM233.996 294.195C232.564 294.195 231.398 293.727 230.5 292.789C229.602 291.845 229.152 290.585 229.152 289.01V288.678C229.152 287.63 229.351 286.695 229.748 285.875C230.152 285.048 230.712 284.404 231.428 283.941C232.15 283.473 232.932 283.238 233.771 283.238C235.145 283.238 236.213 283.691 236.975 284.596C237.736 285.501 238.117 286.796 238.117 288.482V289.234H230.959C230.985 290.276 231.288 291.119 231.867 291.764C232.453 292.402 233.195 292.721 234.094 292.721C234.732 292.721 235.272 292.59 235.715 292.33C236.158 292.07 236.545 291.725 236.877 291.295L237.98 292.154C237.095 293.515 235.767 294.195 233.996 294.195ZM233.771 284.723C233.042 284.723 232.43 284.99 231.936 285.523C231.441 286.051 231.135 286.793 231.018 287.75H236.311V287.613C236.258 286.695 236.011 285.986 235.568 285.484C235.126 284.977 234.527 284.723 233.771 284.723ZM241.926 283.434L241.984 284.762C242.792 283.746 243.846 283.238 245.148 283.238C247.382 283.238 248.508 284.498 248.527 287.018V294H246.721V287.008C246.714 286.246 246.538 285.683 246.193 285.318C245.855 284.954 245.324 284.771 244.602 284.771C244.016 284.771 243.501 284.928 243.059 285.24C242.616 285.553 242.271 285.963 242.023 286.471V294H240.217V283.434H241.926ZM253.703 280.875V283.434H255.676V284.83H253.703V291.383C253.703 291.806 253.791 292.125 253.967 292.34C254.143 292.548 254.442 292.652 254.865 292.652C255.074 292.652 255.36 292.613 255.725 292.535V294C255.249 294.13 254.787 294.195 254.338 294.195C253.531 294.195 252.922 293.951 252.512 293.463C252.102 292.975 251.896 292.281 251.896 291.383V284.83H249.973V283.434H251.896V280.875H253.703ZM271.701 288.834C271.701 290.449 271.33 291.747 270.588 292.73C269.846 293.707 268.85 294.195 267.6 294.195C266.265 294.195 265.233 293.723 264.504 292.779L264.416 294H262.756V279H264.562V284.596C265.292 283.691 266.298 283.238 267.58 283.238C268.863 283.238 269.868 283.723 270.598 284.693C271.333 285.663 271.701 286.992 271.701 288.678V288.834ZM269.895 288.629C269.895 287.398 269.657 286.448 269.182 285.777C268.706 285.107 268.023 284.771 267.131 284.771C265.939 284.771 265.083 285.325 264.562 286.432V291.002C265.116 292.109 265.979 292.662 267.15 292.662C268.016 292.662 268.69 292.327 269.172 291.656C269.654 290.986 269.895 289.977 269.895 288.629ZM278.371 294.195C276.939 294.195 275.773 293.727 274.875 292.789C273.977 291.845 273.527 290.585 273.527 289.01V288.678C273.527 287.63 273.726 286.695 274.123 285.875C274.527 285.048 275.087 284.404 275.803 283.941C276.525 283.473 277.307 283.238 278.146 283.238C279.52 283.238 280.588 283.691 281.35 284.596C282.111 285.501 282.492 286.796 282.492 288.482V289.234H275.334C275.36 290.276 275.663 291.119 276.242 291.764C276.828 292.402 277.57 292.721 278.469 292.721C279.107 292.721 279.647 292.59 280.09 292.33C280.533 292.07 280.92 291.725 281.252 291.295L282.355 292.154C281.47 293.515 280.142 294.195 278.371 294.195ZM278.146 284.723C277.417 284.723 276.805 284.99 276.311 285.523C275.816 286.051 275.51 286.793 275.393 287.75H280.686V287.613C280.633 286.695 280.386 285.986 279.943 285.484C279.501 284.977 278.902 284.723 278.146 284.723ZM287.043 280.875V283.434H289.016V284.83H287.043V291.383C287.043 291.806 287.131 292.125 287.307 292.34C287.482 292.548 287.782 292.652 288.205 292.652C288.413 292.652 288.7 292.613 289.064 292.535V294C288.589 294.13 288.127 294.195 287.678 294.195C286.87 294.195 286.262 293.951 285.852 293.463C285.441 292.975 285.236 292.281 285.236 291.383V284.83H283.312V283.434H285.236V280.875H287.043ZM300.49 291.51L302.521 283.434H304.328L301.252 294H299.787L297.219 285.992L294.719 294H293.254L290.188 283.434H291.984L294.064 291.344L296.525 283.434H297.98L300.49 291.51ZM310.559 294.195C309.126 294.195 307.961 293.727 307.062 292.789C306.164 291.845 305.715 290.585 305.715 289.01V288.678C305.715 287.63 305.913 286.695 306.311 285.875C306.714 285.048 307.274 284.404 307.99 283.941C308.713 283.473 309.494 283.238 310.334 283.238C311.708 283.238 312.775 283.691 313.537 284.596C314.299 285.501 314.68 286.796 314.68 288.482V289.234H307.521C307.548 290.276 307.85 291.119 308.43 291.764C309.016 292.402 309.758 292.721 310.656 292.721C311.294 292.721 311.835 292.59 312.277 292.33C312.72 292.07 313.107 291.725 313.439 291.295L314.543 292.154C313.658 293.515 312.329 294.195 310.559 294.195ZM310.334 284.723C309.605 284.723 308.993 284.99 308.498 285.523C308.003 286.051 307.697 286.793 307.58 287.75H312.873V287.613C312.821 286.695 312.574 285.986 312.131 285.484C311.688 284.977 311.089 284.723 310.334 284.723ZM321.164 294.195C319.732 294.195 318.566 293.727 317.668 292.789C316.77 291.845 316.32 290.585 316.32 289.01V288.678C316.32 287.63 316.519 286.695 316.916 285.875C317.32 285.048 317.88 284.404 318.596 283.941C319.318 283.473 320.1 283.238 320.939 283.238C322.313 283.238 323.381 283.691 324.143 284.596C324.904 285.501 325.285 286.796 325.285 288.482V289.234H318.127C318.153 290.276 318.456 291.119 319.035 291.764C319.621 292.402 320.363 292.721 321.262 292.721C321.9 292.721 322.44 292.59 322.883 292.33C323.326 292.07 323.713 291.725 324.045 291.295L325.148 292.154C324.263 293.515 322.935 294.195 321.164 294.195ZM320.939 284.723C320.21 284.723 319.598 284.99 319.104 285.523C318.609 286.051 318.303 286.793 318.186 287.75H323.479V287.613C323.426 286.695 323.179 285.986 322.736 285.484C322.294 284.977 321.695 284.723 320.939 284.723ZM329.094 283.434L329.152 284.762C329.96 283.746 331.014 283.238 332.316 283.238C334.549 283.238 335.676 284.498 335.695 287.018V294H333.889V287.008C333.882 286.246 333.706 285.683 333.361 285.318C333.023 284.954 332.492 284.771 331.77 284.771C331.184 284.771 330.669 284.928 330.227 285.24C329.784 285.553 329.439 285.963 329.191 286.471V294H327.385V283.434H329.094ZM352.307 288.834C352.307 290.442 351.939 291.738 351.203 292.721C350.467 293.704 349.471 294.195 348.215 294.195C346.932 294.195 345.923 293.788 345.188 292.975V298.062H343.381V283.434H345.031L345.119 284.605C345.855 283.694 346.877 283.238 348.186 283.238C349.455 283.238 350.458 283.717 351.193 284.674C351.936 285.631 352.307 286.962 352.307 288.668V288.834ZM350.5 288.629C350.5 287.438 350.246 286.497 349.738 285.807C349.23 285.117 348.534 284.771 347.648 284.771C346.555 284.771 345.734 285.257 345.188 286.227V291.275C345.728 292.239 346.555 292.721 347.668 292.721C348.534 292.721 349.221 292.379 349.729 291.695C350.243 291.005 350.5 289.983 350.5 288.629ZM359.191 290.182C359.191 289.498 359.38 288.87 359.758 288.297C360.142 287.724 360.871 287.057 361.945 286.295C361.314 285.527 360.891 284.908 360.676 284.439C360.461 283.971 360.354 283.505 360.354 283.043C360.354 281.962 360.673 281.116 361.311 280.504C361.949 279.892 362.814 279.586 363.908 279.586C364.885 279.586 365.692 279.872 366.33 280.445C366.968 281.012 367.287 281.728 367.287 282.594C367.287 283.167 367.141 283.697 366.848 284.186C366.561 284.667 366.057 285.175 365.334 285.709L364.289 286.48L367.453 290.26C367.896 289.413 368.117 288.473 368.117 287.438H369.748C369.748 289.098 369.348 290.475 368.547 291.568L370.578 294H368.41L367.463 292.877C366.981 293.307 366.415 293.635 365.764 293.863C365.119 294.085 364.462 294.195 363.791 294.195C362.404 294.195 361.291 293.827 360.451 293.092C359.611 292.356 359.191 291.386 359.191 290.182ZM363.791 292.721C364.748 292.721 365.624 292.356 366.418 291.627L362.951 287.477L362.629 287.711C361.542 288.512 360.998 289.335 360.998 290.182C360.998 290.95 361.245 291.565 361.74 292.027C362.242 292.49 362.925 292.721 363.791 292.721ZM362.16 282.984C362.16 283.609 362.544 284.391 363.312 285.328L364.465 284.518C364.908 284.205 365.21 283.909 365.373 283.629C365.536 283.342 365.617 282.997 365.617 282.594C365.617 282.158 365.454 281.796 365.129 281.51C364.803 281.217 364.393 281.07 363.898 281.07C363.365 281.07 362.941 281.253 362.629 281.617C362.316 281.975 362.16 282.431 362.16 282.984ZM376.535 288.629C376.535 286.969 376.916 285.657 377.678 284.693C378.439 283.723 379.462 283.238 380.744 283.238C381.994 283.238 382.98 283.658 383.703 284.498L383.781 283.434H385.441V298.062H383.635V293.023C382.906 293.805 381.936 294.195 380.725 294.195C379.449 294.195 378.43 293.701 377.668 292.711C376.913 291.715 376.535 290.396 376.535 288.756V288.629ZM378.342 288.834C378.342 290.045 378.596 290.995 379.104 291.686C379.618 292.376 380.308 292.721 381.174 292.721C382.248 292.721 383.068 292.245 383.635 291.295V286.119C383.062 285.188 382.248 284.723 381.193 284.723C380.321 284.723 379.628 285.071 379.113 285.768C378.599 286.458 378.342 287.48 378.342 288.834ZM173.566 315.721C174.211 315.721 174.774 315.525 175.256 315.135C175.738 314.744 176.005 314.256 176.057 313.67H177.766C177.733 314.275 177.525 314.852 177.141 315.398C176.757 315.945 176.242 316.382 175.598 316.707C174.96 317.033 174.283 317.195 173.566 317.195C172.128 317.195 170.982 316.717 170.129 315.76C169.283 314.796 168.859 313.481 168.859 311.814V311.512C168.859 310.483 169.048 309.568 169.426 308.768C169.803 307.967 170.344 307.345 171.047 306.902C171.757 306.46 172.593 306.238 173.557 306.238C174.742 306.238 175.725 306.593 176.506 307.303C177.294 308.012 177.714 308.934 177.766 310.066H176.057C176.005 309.383 175.744 308.823 175.275 308.387C174.813 307.944 174.24 307.723 173.557 307.723C172.639 307.723 171.926 308.055 171.418 308.719C170.917 309.376 170.666 310.33 170.666 311.58V311.922C170.666 313.139 170.917 314.077 171.418 314.734C171.919 315.392 172.635 315.721 173.566 315.721ZM179.318 311.619C179.318 310.584 179.52 309.653 179.924 308.826C180.334 307.999 180.9 307.361 181.623 306.912C182.352 306.463 183.182 306.238 184.113 306.238C185.552 306.238 186.714 306.736 187.6 307.732C188.492 308.729 188.938 310.053 188.938 311.707V311.834C188.938 312.863 188.739 313.787 188.342 314.607C187.951 315.421 187.388 316.056 186.652 316.512C185.923 316.967 185.083 317.195 184.133 317.195C182.701 317.195 181.538 316.697 180.646 315.701C179.761 314.705 179.318 313.387 179.318 311.746V311.619ZM181.135 311.834C181.135 313.006 181.405 313.947 181.945 314.656C182.492 315.366 183.221 315.721 184.133 315.721C185.051 315.721 185.78 315.363 186.32 314.646C186.861 313.924 187.131 312.915 187.131 311.619C187.131 310.46 186.854 309.523 186.301 308.807C185.754 308.084 185.025 307.723 184.113 307.723C183.221 307.723 182.502 308.077 181.955 308.787C181.408 309.497 181.135 310.512 181.135 311.834ZM197.727 315.955C197.023 316.782 195.992 317.195 194.631 317.195C193.505 317.195 192.645 316.87 192.053 316.219C191.467 315.561 191.171 314.591 191.164 313.309V306.434H192.971V313.26C192.971 314.861 193.622 315.662 194.924 315.662C196.304 315.662 197.222 315.148 197.678 314.119V306.434H199.484V317H197.766L197.727 315.955ZM203.947 306.434L204.006 307.762C204.813 306.746 205.868 306.238 207.17 306.238C209.403 306.238 210.529 307.498 210.549 310.018V317H208.742V310.008C208.736 309.246 208.56 308.683 208.215 308.318C207.876 307.954 207.346 307.771 206.623 307.771C206.037 307.771 205.523 307.928 205.08 308.24C204.637 308.553 204.292 308.963 204.045 309.471V317H202.238V306.434H203.947ZM215.725 303.875V306.434H217.697V307.83H215.725V314.383C215.725 314.806 215.812 315.125 215.988 315.34C216.164 315.548 216.464 315.652 216.887 315.652C217.095 315.652 217.382 315.613 217.746 315.535V317C217.271 317.13 216.809 317.195 216.359 317.195C215.552 317.195 214.943 316.951 214.533 316.463C214.123 315.975 213.918 315.281 213.918 314.383V307.83H211.994V306.434H213.918V303.875H215.725ZM221.779 317H219.973V306.434H221.779V317ZM219.826 303.631C219.826 303.338 219.914 303.09 220.09 302.889C220.272 302.687 220.539 302.586 220.891 302.586C221.242 302.586 221.509 302.687 221.691 302.889C221.874 303.09 221.965 303.338 221.965 303.631C221.965 303.924 221.874 304.168 221.691 304.363C221.509 304.559 221.242 304.656 220.891 304.656C220.539 304.656 220.272 304.559 220.09 304.363C219.914 304.168 219.826 303.924 219.826 303.631ZM226.389 306.434L226.447 307.762C227.255 306.746 228.309 306.238 229.611 306.238C231.844 306.238 232.971 307.498 232.99 310.018V317H231.184V310.008C231.177 309.246 231.001 308.683 230.656 308.318C230.318 307.954 229.787 307.771 229.064 307.771C228.479 307.771 227.964 307.928 227.521 308.24C227.079 308.553 226.734 308.963 226.486 309.471V317H224.68V306.434H226.389ZM235.285 311.629C235.285 309.982 235.666 308.673 236.428 307.703C237.189 306.727 238.199 306.238 239.455 306.238C240.744 306.238 241.75 306.694 242.473 307.605L242.561 306.434H244.211V316.746C244.211 318.113 243.804 319.191 242.99 319.979C242.183 320.766 241.096 321.16 239.729 321.16C238.967 321.16 238.221 320.997 237.492 320.672C236.763 320.346 236.206 319.9 235.822 319.334L236.76 318.25C237.535 319.207 238.482 319.686 239.602 319.686C240.48 319.686 241.164 319.438 241.652 318.943C242.147 318.449 242.395 317.752 242.395 316.854V315.945C241.672 316.779 240.686 317.195 239.436 317.195C238.199 317.195 237.196 316.697 236.428 315.701C235.666 314.705 235.285 313.348 235.285 311.629ZM237.102 311.834C237.102 313.025 237.346 313.963 237.834 314.646C238.322 315.324 239.006 315.662 239.885 315.662C241.024 315.662 241.861 315.145 242.395 314.109V309.285C241.841 308.276 241.011 307.771 239.904 307.771C239.025 307.771 238.339 308.113 237.844 308.797C237.349 309.48 237.102 310.493 237.102 311.834ZM253.762 307.4L250.812 306.521L251.262 305.047L254.211 306.141L254.123 302.781H255.617L255.52 306.189L258.42 305.115L258.869 306.6L255.871 307.488L257.805 310.135L256.594 311.053L254.777 308.24L253.02 310.984L251.799 310.096L253.762 307.4ZM269.445 311.834C269.445 313.442 269.077 314.738 268.342 315.721C267.606 316.704 266.61 317.195 265.354 317.195C264.071 317.195 263.062 316.788 262.326 315.975V321.062H260.52V306.434H262.17L262.258 307.605C262.993 306.694 264.016 306.238 265.324 306.238C266.594 306.238 267.596 306.717 268.332 307.674C269.074 308.631 269.445 309.962 269.445 311.668V311.834ZM267.639 311.629C267.639 310.438 267.385 309.497 266.877 308.807C266.369 308.117 265.673 307.771 264.787 307.771C263.693 307.771 262.873 308.257 262.326 309.227V314.275C262.867 315.239 263.693 315.721 264.807 315.721C265.673 315.721 266.359 315.379 266.867 314.695C267.382 314.005 267.639 312.983 267.639 311.629ZM285.656 311.834C285.656 313.449 285.285 314.747 284.543 315.73C283.801 316.707 282.805 317.195 281.555 317.195C280.22 317.195 279.188 316.723 278.459 315.779L278.371 317H276.711V302H278.518V307.596C279.247 306.691 280.253 306.238 281.535 306.238C282.818 306.238 283.824 306.723 284.553 307.693C285.288 308.663 285.656 309.992 285.656 311.678V311.834ZM283.85 311.629C283.85 310.398 283.612 309.448 283.137 308.777C282.661 308.107 281.978 307.771 281.086 307.771C279.895 307.771 279.038 308.325 278.518 309.432V314.002C279.071 315.109 279.934 315.662 281.105 315.662C281.971 315.662 282.645 315.327 283.127 314.656C283.609 313.986 283.85 312.977 283.85 311.629ZM294.465 315.955C293.762 316.782 292.73 317.195 291.369 317.195C290.243 317.195 289.383 316.87 288.791 316.219C288.205 315.561 287.909 314.591 287.902 313.309V306.434H289.709V313.26C289.709 314.861 290.36 315.662 291.662 315.662C293.042 315.662 293.96 315.148 294.416 314.119V306.434H296.223V317H294.504L294.465 315.955ZM301.428 303.875V306.434H303.4V307.83H301.428V314.383C301.428 314.806 301.516 315.125 301.691 315.34C301.867 315.548 302.167 315.652 302.59 315.652C302.798 315.652 303.085 315.613 303.449 315.535V317C302.974 317.13 302.512 317.195 302.062 317.195C301.255 317.195 300.646 316.951 300.236 316.463C299.826 315.975 299.621 315.281 299.621 314.383V307.83H297.697V306.434H299.621V303.875H301.428ZM312.189 306.434L312.248 307.762C313.055 306.746 314.11 306.238 315.412 306.238C317.645 306.238 318.771 307.498 318.791 310.018V317H316.984V310.008C316.978 309.246 316.802 308.683 316.457 308.318C316.118 307.954 315.588 307.771 314.865 307.771C314.279 307.771 313.765 307.928 313.322 308.24C312.88 308.553 312.535 308.963 312.287 309.471V317H310.48V306.434H312.189ZM321.037 311.619C321.037 310.584 321.239 309.653 321.643 308.826C322.053 307.999 322.619 307.361 323.342 306.912C324.071 306.463 324.901 306.238 325.832 306.238C327.271 306.238 328.433 306.736 329.318 307.732C330.21 308.729 330.656 310.053 330.656 311.707V311.834C330.656 312.863 330.458 313.787 330.061 314.607C329.67 315.421 329.107 316.056 328.371 316.512C327.642 316.967 326.802 317.195 325.852 317.195C324.419 317.195 323.257 316.697 322.365 315.701C321.48 314.705 321.037 313.387 321.037 311.746V311.619ZM322.854 311.834C322.854 313.006 323.124 313.947 323.664 314.656C324.211 315.366 324.94 315.721 325.852 315.721C326.77 315.721 327.499 315.363 328.039 314.646C328.579 313.924 328.85 312.915 328.85 311.619C328.85 310.46 328.573 309.523 328.02 308.807C327.473 308.084 326.743 307.723 325.832 307.723C324.94 307.723 324.221 308.077 323.674 308.787C323.127 309.497 322.854 310.512 322.854 311.834ZM335.373 303.875V306.434H337.346V307.83H335.373V314.383C335.373 314.806 335.461 315.125 335.637 315.34C335.812 315.548 336.112 315.652 336.535 315.652C336.743 315.652 337.03 315.613 337.395 315.535V317C336.919 317.13 336.457 317.195 336.008 317.195C335.201 317.195 334.592 316.951 334.182 316.463C333.771 315.975 333.566 315.281 333.566 314.383V307.83H331.643V306.434H333.566V303.875H335.373ZM346.281 307.4L343.332 306.521L343.781 305.047L346.73 306.141L346.643 302.781H348.137L348.039 306.189L350.939 305.115L351.389 306.6L348.391 307.488L350.324 310.135L349.113 311.053L347.297 308.24L345.539 310.984L344.318 310.096L346.281 307.4ZM352.6 311.629C352.6 309.969 352.98 308.657 353.742 307.693C354.504 306.723 355.526 306.238 356.809 306.238C358.059 306.238 359.045 306.658 359.768 307.498L359.846 306.434H361.506V321.062H359.699V316.023C358.97 316.805 358 317.195 356.789 317.195C355.513 317.195 354.494 316.701 353.732 315.711C352.977 314.715 352.6 313.396 352.6 311.756V311.629ZM354.406 311.834C354.406 313.045 354.66 313.995 355.168 314.686C355.682 315.376 356.372 315.721 357.238 315.721C358.312 315.721 359.133 315.245 359.699 314.295V309.119C359.126 308.188 358.312 307.723 357.258 307.723C356.385 307.723 355.692 308.071 355.178 308.768C354.663 309.458 354.406 310.48 354.406 311.834Z" fill="black"/>
<path d="M101.296 31.0176C101.296 28.8594 101.791 27.154 102.781 25.9014C103.771 24.6403 105.1 24.0098 106.768 24.0098C108.393 24.0098 109.675 24.5557 110.614 25.6475L110.716 24.2637H112.874V43.2812H110.525V36.7305C109.577 37.7461 108.316 38.2539 106.742 38.2539C105.083 38.2539 103.759 37.6107 102.769 36.3242C101.787 35.0293 101.296 33.3154 101.296 31.1826V31.0176ZM103.645 31.2842C103.645 32.8584 103.975 34.0941 104.635 34.9912C105.303 35.8883 106.201 36.3369 107.326 36.3369C108.723 36.3369 109.789 35.7191 110.525 34.4834V27.7549C109.781 26.5446 108.723 25.9395 107.352 25.9395C106.217 25.9395 105.316 26.3923 104.647 27.2979C103.979 28.195 103.645 29.5238 103.645 31.2842ZM140.105 29.7354H123.145V27.8184H140.105V29.7354ZM161.459 31.2842C161.459 33.3747 160.981 35.0589 160.024 36.3369C159.068 37.6149 157.773 38.2539 156.14 38.2539C154.472 38.2539 153.16 37.7249 152.204 36.667V43.2812H149.855V24.2637H152.001L152.115 25.7871C153.072 24.6022 154.4 24.0098 156.102 24.0098C157.752 24.0098 159.055 24.6318 160.012 25.876C160.977 27.1201 161.459 28.8509 161.459 31.0684V31.2842ZM159.11 31.0176C159.11 29.4688 158.78 28.2458 158.12 27.3486C157.46 26.4515 156.554 26.0029 155.403 26.0029C153.981 26.0029 152.915 26.6335 152.204 27.8945V34.458C152.907 35.7106 153.981 36.3369 155.429 36.3369C156.554 36.3369 157.447 35.8926 158.107 35.0039C158.776 34.1068 159.11 32.778 159.11 31.0176ZM173.456 38H171.107V24.2637H173.456V38ZM170.917 20.6201C170.917 20.2393 171.031 19.9176 171.26 19.6553C171.497 19.3929 171.844 19.2617 172.301 19.2617C172.758 19.2617 173.105 19.3929 173.342 19.6553C173.579 19.9176 173.697 20.2393 173.697 20.6201C173.697 21.001 173.579 21.3184 173.342 21.5723C173.105 21.8262 172.758 21.9531 172.301 21.9531C171.844 21.9531 171.497 21.8262 171.26 21.5723C171.031 21.3184 170.917 21.001 170.917 20.6201ZM185.225 34.3564C185.225 33.7217 184.983 33.2308 184.501 32.8838C184.027 32.5283 183.193 32.2236 182 31.9697C180.815 31.7158 179.871 31.4111 179.169 31.0557C178.475 30.7002 177.959 30.277 177.62 29.7861C177.29 29.2952 177.125 28.7113 177.125 28.0342C177.125 26.9085 177.599 25.9564 178.547 25.1777C179.503 24.3991 180.722 24.0098 182.203 24.0098C183.76 24.0098 185.021 24.4118 185.986 25.2158C186.96 26.0199 187.446 27.0482 187.446 28.3008H185.085C185.085 27.6576 184.81 27.1032 184.26 26.6377C183.718 26.1722 183.033 25.9395 182.203 25.9395C181.348 25.9395 180.68 26.1257 180.197 26.498C179.715 26.8704 179.474 27.3571 179.474 27.958C179.474 28.5251 179.698 28.9525 180.146 29.2402C180.595 29.528 181.403 29.8031 182.571 30.0654C183.748 30.3278 184.7 30.641 185.428 31.0049C186.156 31.3688 186.693 31.8089 187.04 32.3252C187.396 32.833 187.573 33.4551 187.573 34.1914C187.573 35.4186 187.082 36.4046 186.101 37.1494C185.119 37.8857 183.845 38.2539 182.279 38.2539C181.179 38.2539 180.206 38.0592 179.359 37.6699C178.513 37.2806 177.849 36.7389 177.366 36.0449C176.892 35.3424 176.655 34.585 176.655 33.7725H179.004C179.046 34.5596 179.359 35.1859 179.943 35.6514C180.536 36.1084 181.314 36.3369 182.279 36.3369C183.168 36.3369 183.879 36.1592 184.412 35.8037C184.954 35.4398 185.225 34.9574 185.225 34.3564ZM199.304 24.2637L199.38 25.9902C200.429 24.6699 201.8 24.0098 203.493 24.0098C206.396 24.0098 207.86 25.6475 207.886 28.9229V38H205.537V28.9102C205.529 27.9199 205.3 27.1878 204.852 26.7139C204.411 26.2399 203.722 26.0029 202.782 26.0029C202.021 26.0029 201.352 26.2061 200.776 26.6123C200.201 27.0186 199.752 27.5518 199.431 28.2119V38H197.082V24.2637H199.304ZM220.429 38H218.08V24.2637H220.429V38ZM217.89 20.6201C217.89 20.2393 218.004 19.9176 218.232 19.6553C218.469 19.3929 218.816 19.2617 219.273 19.2617C219.73 19.2617 220.077 19.3929 220.314 19.6553C220.551 19.9176 220.67 20.2393 220.67 20.6201C220.67 21.001 220.551 21.3184 220.314 21.5723C220.077 21.8262 219.73 21.9531 219.273 21.9531C218.816 21.9531 218.469 21.8262 218.232 21.5723C218.004 21.3184 217.89 21.001 217.89 20.6201ZM225.354 38V26.0791H223.184V24.2637H225.354V22.8545C225.354 21.3818 225.748 20.2435 226.535 19.4395C227.322 18.6354 228.435 18.2334 229.874 18.2334C230.416 18.2334 230.953 18.3053 231.486 18.4492L231.359 20.3535C230.962 20.2773 230.538 20.2393 230.09 20.2393C229.328 20.2393 228.74 20.4635 228.325 20.9121C227.91 21.3522 227.703 21.987 227.703 22.8164V24.2637H230.636V26.0791H227.703V38H225.354ZM251.291 31.2842C251.291 33.3747 250.813 35.0589 249.856 36.3369C248.9 37.6149 247.605 38.2539 245.972 38.2539C244.304 38.2539 242.993 37.7249 242.036 36.667V43.2812H239.688V24.2637H241.833L241.947 25.7871C242.904 24.6022 244.232 24.0098 245.934 24.0098C247.584 24.0098 248.887 24.6318 249.844 25.876C250.809 27.1201 251.291 28.8509 251.291 31.0684V31.2842ZM248.942 31.0176C248.942 29.4688 248.612 28.2458 247.952 27.3486C247.292 26.4515 246.386 26.0029 245.235 26.0029C243.813 26.0029 242.747 26.6335 242.036 27.8945V34.458C242.739 35.7106 243.813 36.3369 245.261 36.3369C246.386 36.3369 247.279 35.8926 247.939 35.0039C248.608 34.1068 248.942 32.778 248.942 31.0176ZM267.465 28.085H272.619V30.3066H267.465V36.1465H265.104V30.3066H259.949V28.085H265.104V22.6895H267.465V28.085ZM284.159 24.2637L284.235 25.9902C285.285 24.6699 286.656 24.0098 288.349 24.0098C291.252 24.0098 292.716 25.6475 292.741 28.9229V38H290.393V28.9102C290.384 27.9199 290.156 27.1878 289.707 26.7139C289.267 26.2399 288.577 26.0029 287.638 26.0029C286.876 26.0029 286.207 26.2061 285.632 26.6123C285.056 27.0186 284.608 27.5518 284.286 28.2119V38H281.938V24.2637H284.159ZM305.284 38H302.936V24.2637H305.284V38ZM302.745 20.6201C302.745 20.2393 302.859 19.9176 303.088 19.6553C303.325 19.3929 303.672 19.2617 304.129 19.2617C304.586 19.2617 304.933 19.3929 305.17 19.6553C305.407 19.9176 305.525 20.2393 305.525 20.6201C305.525 21.001 305.407 21.3184 305.17 21.5723C304.933 21.8262 304.586 21.9531 304.129 21.9531C303.672 21.9531 303.325 21.8262 303.088 21.5723C302.859 21.3184 302.745 21.001 302.745 20.6201ZM317.053 34.3564C317.053 33.7217 316.812 33.2308 316.329 32.8838C315.855 32.5283 315.021 32.2236 313.828 31.9697C312.643 31.7158 311.7 31.4111 310.997 31.0557C310.303 30.7002 309.787 30.277 309.448 29.7861C309.118 29.2952 308.953 28.7113 308.953 28.0342C308.953 26.9085 309.427 25.9564 310.375 25.1777C311.331 24.3991 312.55 24.0098 314.031 24.0098C315.589 24.0098 316.85 24.4118 317.814 25.2158C318.788 26.0199 319.274 27.0482 319.274 28.3008H316.913C316.913 27.6576 316.638 27.1032 316.088 26.6377C315.546 26.1722 314.861 25.9395 314.031 25.9395C313.176 25.9395 312.508 26.1257 312.025 26.498C311.543 26.8704 311.302 27.3571 311.302 27.958C311.302 28.5251 311.526 28.9525 311.975 29.2402C312.423 29.528 313.231 29.8031 314.399 30.0654C315.576 30.3278 316.528 30.641 317.256 31.0049C317.984 31.3688 318.521 31.8089 318.868 32.3252C319.224 32.833 319.401 33.4551 319.401 34.1914C319.401 35.4186 318.91 36.4046 317.929 37.1494C316.947 37.8857 315.673 38.2539 314.107 38.2539C313.007 38.2539 312.034 38.0592 311.188 37.6699C310.341 37.2806 309.677 36.7389 309.194 36.0449C308.72 35.3424 308.483 34.585 308.483 33.7725H310.832C310.874 34.5596 311.188 35.1859 311.771 35.6514C312.364 36.1084 313.143 36.3369 314.107 36.3369C314.996 36.3369 315.707 36.1592 316.24 35.8037C316.782 35.4398 317.053 34.9574 317.053 34.3564ZM328.339 31.0176C328.339 28.8594 328.834 27.154 329.824 25.9014C330.814 24.6403 332.143 24.0098 333.811 24.0098C335.436 24.0098 336.718 24.5557 337.657 25.6475L337.759 24.2637H339.917V43.2812H337.568V36.7305C336.62 37.7461 335.359 38.2539 333.785 38.2539C332.126 38.2539 330.802 37.6107 329.812 36.3242C328.83 35.0293 328.339 33.3154 328.339 31.1826V31.0176ZM330.688 31.2842C330.688 32.8584 331.018 34.0941 331.678 34.9912C332.346 35.8883 333.243 36.3369 334.369 36.3369C335.766 36.3369 336.832 35.7191 337.568 34.4834V27.7549C336.824 26.5446 335.766 25.9395 334.395 25.9395C333.26 25.9395 332.359 26.3923 331.69 27.2979C331.022 28.195 330.688 29.5238 330.688 31.2842Z" fill="black"/>
<path d="M222.416 144.506C222.143 143.724 221.288 143.311 220.506 143.584L207.759 148.03C206.977 148.303 206.564 149.158 206.837 149.941C207.11 150.723 207.965 151.136 208.747 150.863L220.078 146.91L224.03 158.241C224.303 159.023 225.158 159.436 225.941 159.163C226.723 158.89 227.136 158.035 226.863 157.253L222.416 144.506ZM208.351 174.652L222.351 145.652L219.649 144.348L205.649 173.348L208.351 174.652Z" fill="black"/>
<path d="M75.4163 138.506C75.1434 137.724 74.2881 137.311 73.5059 137.584L60.7592 142.03C59.977 142.303 59.5641 143.158 59.837 143.941C60.1099 144.723 60.9652 145.136 61.7474 144.863L73.0778 140.91L77.0302 152.241C77.3031 153.023 78.1584 153.436 78.9406 153.163C79.7228 152.89 80.1357 152.035 79.8628 151.253L75.4163 138.506ZM61.3508 168.652L75.3508 139.652L72.6492 138.348L58.6492 167.348L61.3508 168.652Z" fill="black"/>
<line x1="14" y1="213.5" x2="246" y2="213.5" stroke="black"/>
<line x1="245.5" y1="214" x2="245.5" y2="200" stroke="black"/>
<line x1="13.5" y1="214" x2="13.5" y2="200" stroke="black"/>
<path d="M161.464 258.814C161.362 258.558 161.071 258.433 160.814 258.536L156.636 260.207C156.38 260.31 156.255 260.601 156.358 260.857C156.46 261.113 156.751 261.238 157.008 261.135L160.721 259.65L162.207 263.364C162.31 263.62 162.601 263.745 162.857 263.642C163.113 263.54 163.238 263.249 163.135 262.992L161.464 258.814ZM155.46 273.197L161.46 259.197L160.54 258.803L154.54 272.803L155.46 273.197Z" fill="black"/>
</svg>
